P2
100 100
255
110 116 124 129 133 133 136 139 138 137 137 142 145 143 139 138 142 158 173 180 181 181 185 191 195 193 189 192 192 187 177 163 151 140 137 135 134 132 129 128 128 131 132 134 134 136 136 134 136 135 135 134 134 134 134 134 132 131 131 131 133 132 132 131 131 131 130 131 131 132 130 130 129 129 128 129 130 129 129 129 128 129 127 130 130 131 131 130 128 131 127 126 128 129 129 128 128 127 124 111 
109 118 124 128 131 130 130 132 133 133 133 132 134 133 131 127 129 146 169 180 181 182 186 191 192 186 181 183 182 173 166 157 148 141 140 138 139 138 136 134 134 133 135 136 136 137 139 137 136 137 137 136 136 136 136 134 132 133 133 131 133 134 134 131 131 132 131 130 132 132 130 130 130 130 129 128 130 129 129 129 129 129 127 128 129 129 129 131 130 128 126 126 128 127 127 128 128 127 124 110 
112 114 118 121 127 127 126 125 125 126 126 124 121 118 115 111 119 139 165 178 182 184 188 189 185 173 166 169 170 164 158 153 145 141 141 142 142 140 136 136 137 137 137 137 138 137 138 138 139 136 136 136 136 137 138 135 134 135 133 131 131 135 135 131 131 133 131 131 131 132 131 130 131 131 131 128 131 130 128 128 130 129 129 129 131 129 129 131 130 130 129 129 128 125 126 128 129 130 126 111 
116 117 119 121 124 124 123 121 121 120 118 113 107 103 103 104 117 139 164 173 175 177 178 178 173 163 161 166 167 162 156 152 145 143 143 144 144 142 138 135 137 137 138 138 138 137 136 135 137 136 136 136 136 135 134 135 135 135 133 133 133 131 131 133 133 133 131 133 133 130 132 132 131 131 131 130 131 131 130 128 130 131 131 130 130 130 131 130 131 131 130 130 129 126 127 127 129 130 129 114 
118 118 118 121 122 122 120 120 119 114 110 107 102 100 102 105 115 138 157 151 139 137 160 166 164 161 163 168 170 166 158 154 149 152 153 151 147 145 141 139 138 140 139 138 138 136 136 137 136 136 136 135 135 134 134 134 135 134 134 133 132 131 131 131 133 132 131 132 131 129 128 131 131 130 130 130 129 128 128 128 128 127 129 128 128 129 128 127 127 129 129 130 129 130 127 126 129 130 128 114 
121 120 120 119 118 116 115 116 114 113 109 104 100 100 101 102 111 129 101 74 58 55 97 116 143 159 160 165 167 165 160 155 152 152 155 154 150 146 142 140 139 140 141 140 137 136 136 136 136 137 137 136 136 136 136 134 134 134 134 133 133 133 133 132 133 133 132 132 132 132 130 131 131 130 130 130 131 131 129 129 129 126 124 128 123 124 126 128 129 128 128 130 130 129 126 126 128 128 126 115 
120 123 123 119 115 110 108 108 108 108 107 101 99 99 100 101 104 109 42 58 64 62 64 60 113 129 153 158 159 160 156 152 150 149 150 150 149 145 143 140 139 139 139 139 138 138 136 136 137 140 141 139 137 136 136 134 134 136 136 134 135 135 133 133 133 135 134 132 133 134 134 132 133 134 130 132 133 133 130 125 110 110 118 136 140 133 119 128 129 126 129 131 132 133 132 128 126 127 126 115 
122 122 120 118 114 108 106 106 106 104 102 100 98 97 99 99 100 77 82 99 113 112 101 95 113 101 117 152 160 161 156 149 144 142 141 141 142 140 139 138 139 138 136 137 138 139 138 138 139 140 139 140 140 139 136 135 136 134 134 136 135 135 133 135 135 135 136 136 134 134 134 134 133 133 134 132 132 129 109 108 120 123 137 135 154 155 123 116 130 129 130 132 133 134 136 131 125 126 126 114 
125 122 118 114 112 107 105 105 102 101 100 97 97 98 98 98 100 66 107 147 156 151 155 139 138 111 113 108 162 162 152 144 140 138 137 136 135 136 135 134 134 135 135 133 134 135 134 135 135 137 138 137 137 136 135 135 134 132 132 132 133 134 134 136 134 132 131 134 135 134 134 133 132 133 130 132 127 79 117 126 127 138 143 153 170 173 162 137 126 131 131 131 133 133 132 131 129 125 122 111 
122 118 114 110 108 103 101 101 100 100 98 97 97 98 98 99 103 81 114 128 143 127 156 152 137 155 122 109 108 157 153 146 139 135 134 132 130 131 132 130 128 129 129 128 128 131 132 131 132 134 135 136 135 136 137 134 133 130 127 126 128 129 129 129 129 129 127 130 131 129 129 129 130 130 131 121 66 105 124 128 133 146 160 173 177 180 176 155 128 128 130 131 133 133 132 133 132 130 125 112 
117 112 108 106 104 99 98 98 99 102 102 99 97 97 97 96 95 48 65 72 110 125 127 152 138 144 160 122 113 109 145 144 138 134 131 128 126 125 125 125 125 123 122 121 123 125 126 124 128 130 131 130 131 135 136 135 134 132 130 125 124 126 124 121 122 121 121 122 125 125 122 121 123 126 111 64 93 118 113 114 121 141 157 168 181 177 181 181 148 128 129 128 127 128 130 131 132 131 126 116 
112 109 107 106 104 100 99 99 100 103 105 101 98 97 97 96 92 49 63 65 77 105 112 129 124 98 132 154 130 118 111 127 132 133 131 132 125 122 121 119 119 119 117 117 118 119 116 114 119 120 118 118 117 122 126 128 127 122 127 125 123 122 120 118 114 115 115 117 117 119 119 116 115 118 88 109 110 105 94 111 126 138 154 166 171 175 184 193 135 125 125 126 125 125 128 127 125 122 119 116 
109 106 105 105 106 104 104 103 101 102 103 101 98 97 97 96 94 54 61 48 48 94 117 90 93 79 88 131 139 134 133 125 117 124 141 155 143 130 120 116 109 102 109 111 106 110 92 83 99 132 120 122 113 118 115 129 109 98 90 95 108 109 112 113 110 109 109 109 108 109 109 107 107 104 85 100 85 90 95 106 113 122 143 163 171 172 184 175 119 124 126 124 122 116 113 108 104 104 107 107 
108 106 107 107 110 110 110 109 105 102 102 100 97 98 97 95 95 54 64 55 46 72 129 138 127 96 57 61 110 124 129 129 127 135 164 168 156 140 110 106 112 126 136 142 126 94 70 70 65 68 57 59 63 58 67 75 87 88 87 93 90 90 82 83 106 110 106 106 104 100 105 107 100 44 42 50 54 74 93 101 118 143 159 167 171 176 180 193 155 108 105 103 98 93 94 94 96 101 106 101 
105 105 107 110 113 114 113 112 109 106 103 98 96 96 96 93 95 56 63 58 69 89 79 101 86 88 58 36 51 89 99 105 133 147 149 156 162 156 138 127 135 121 98 82 94 86 95 82 113 133 83 68 41 70 72 83 110 59 59 54 89 121 124 123 113 108 103 121 122 101 108 126 130 69 37 29 44 81 93 112 133 144 156 158 171 173 177 188 180 89 95 97 98 98 97 97 96 102 107 99 
103 104 109 113 116 119 117 115 110 109 106 99 94 92 92 91 95 60 49 47 62 93 138 147 140 101 65 49 33 71 94 118 154 140 136 141 148 141 111 112 107 119 125 114 112 121 126 136 132 124 112 101 61 107 123 129 135 127 102 73 63 68 90 107 119 109 108 125 134 123 101 109 105 68 52 69 87 100 119 140 155 157 164 164 161 170 182 187 174 97 97 101 101 100 98 97 89 96 100 92 
102 104 108 111 115 118 117 117 113 110 106 99 94 90 87 87 96 79 34 45 57 79 95 93 103 125 121 113 90 88 108 147 140 127 114 129 130 121 121 111 79 68 64 61 63 75 65 81 99 106 56 71 68 69 110 122 100 90 82 86 104 107 113 105 97 126 126 123 118 127 119 99 89 79 89 96 102 120 131 143 146 159 165 164 182 176 174 178 163 98 101 99 100 99 93 94 96 93 97 100 
102 104 105 108 112 114 116 115 114 110 106 98 93 89 86 86 95 105 47 56 64 53 37 50 100 112 107 118 97 120 125 122 145 121 122 123 118 133 140 100 69 81 87 89 105 112 113 113 125 91 62 104 122 97 112 119 96 75 50 32 32 35 69 128 125 122 132 126 114 111 108 111 87 70 70 71 84 111 128 146 154 163 165 157 161 174 181 180 142 97 99 99 99 95 95 98 94 94 104 109 
104 104 100 101 105 111 114 114 114 112 107 98 92 89 88 89 99 113 109 40 31 46 51 63 96 124 142 142 137 147 141 130 117 109 100 114 143 171 174 149 150 168 165 156 149 133 114 86 95 112 114 105 125 100 62 79 106 125 134 87 45 39 42 70 134 160 139 126 115 108 102 107 112 98 65 67 74 96 97 105 120 131 149 160 164 171 186 188 123 99 97 96 90 91 97 97 97 95 99 103 
104 103 101 99 104 111 113 116 116 115 112 101 94 94 92 96 106 121 123 92 35 40 35 60 124 134 124 124 120 122 121 123 122 78 97 121 157 152 126 100 117 180 199 184 139 99 111 125 108 123 107 104 111 88 65 46 74 78 120 165 146 129 117 131 179 192 166 135 135 110 92 98 111 114 90 85 89 99 103 109 121 139 150 165 171 185 182 159 99 98 97 98 89 92 95 98 100 106 114 119 
107 106 106 108 110 114 118 118 117 116 115 109 102 99 98 103 112 123 126 122 96 38 53 88 85 80 131 130 123 105 111 83 85 72 133 145 118 67 135 135 175 211 195 137 104 118 126 104 108 105 105 92 101 104 98 91 103 89 148 187 188 177 194 201 207 206 191 155 126 134 102 95 109 128 124 127 114 120 131 123 125 118 126 139 152 171 158 100 100 101 98 99 102 101 105 105 105 104 104 125 
113 112 110 110 115 119 120 119 118 118 118 115 112 106 102 108 118 124 127 126 112 86 65 50 90 129 142 141 139 120 97 108 53 94 130 154 94 119 112 135 198 201 142 83 105 110 112 90 132 109 110 90 58 87 60 111 78 96 100 190 187 126 138 191 156 179 205 176 154 144 120 100 93 114 132 136 126 118 115 109 84 99 120 140 133 142 96 113 110 102 102 101 99 106 111 105 100 96 104 121 
124 123 121 119 122 125 125 125 125 124 119 116 113 112 109 114 122 129 132 130 124 86 96 80 122 145 157 122 104 105 88 32 57 89 145 145 78 153 111 147 207 181 77 70 64 124 106 96 140 141 130 108 103 106 68 110 128 71 66 176 190 130 111 155 79 125 214 181 159 135 84 122 111 100 122 131 141 129 108 109 112 120 119 130 114 109 136 132 120 107 104 96 102 110 110 106 98 99 110 109 
131 131 131 128 129 133 133 132 132 128 122 119 116 115 114 119 127 136 136 133 116 102 78 78 105 137 129 128 110 93 28 40 38 33 115 174 147 178 113 162 182 153 109 59 74 122 84 112 130 135 138 125 120 115 84 86 131 98 89 172 195 142 94 183 113 114 200 207 170 109 49 78 138 108 114 122 141 141 116 93 101 116 134 147 124 131 139 136 128 114 96 93 103 108 108 104 104 106 108 99 
136 136 136 133 133 133 135 134 131 127 123 119 115 113 113 118 130 137 136 134 129 70 44 53 88 111 115 109 120 73 66 118 96 132 121 161 189 198 143 126 159 137 123 86 93 110 100 111 122 138 130 130 128 132 119 93 109 122 86 156 194 155 113 205 165 171 204 186 155 148 94 59 106 133 106 101 125 142 144 111 88 112 138 159 133 138 139 137 133 112 92 99 107 107 107 116 118 117 116 100 
138 137 138 137 135 133 132 131 128 123 118 114 110 108 109 112 126 137 136 133 133 109 58 67 136 137 109 113 113 97 128 156 157 163 168 171 179 186 183 113 135 125 95 79 98 88 100 115 131 124 126 123 126 129 128 129 84 126 110 148 190 137 143 206 152 200 177 88 89 93 143 90 63 122 129 89 91 119 140 133 111 133 150 162 164 144 143 136 122 102 98 107 112 109 116 124 129 129 127 116 
138 138 137 134 134 131 129 127 124 118 112 109 106 103 100 103 119 133 137 136 133 129 112 109 117 107 83 54 80 35 102 150 161 146 132 136 142 165 166 178 126 126 75 59 81 89 109 116 129 126 129 137 131 110 106 116 113 120 124 147 195 134 189 198 195 174 110 141 130 94 154 143 98 74 140 124 80 98 134 142 132 139 162 176 165 147 146 131 115 103 113 118 115 120 129 132 135 138 134 125 
130 132 131 128 128 127 126 124 121 116 108 104 101 97 95 99 115 129 135 137 136 133 113 66 108 102 39 66 30 27 45 75 74 55 34 38 58 60 87 126 134 143 92 47 65 77 90 109 125 133 119 129 128 109 97 102 107 107 110 146 190 174 181 186 189 177 182 213 212 192 189 144 151 145 148 138 111 110 132 140 143 149 159 150 145 146 139 128 110 118 123 124 121 127 133 138 143 145 139 135 
117 117 119 118 118 118 120 118 117 113 107 98 94 92 90 92 109 129 134 133 133 127 68 57 88 56 19 19 25 59 45 36 47 10 8 29 37 37 31 34 99 159 117 42 54 71 83 96 120 133 117 121 113 99 96 98 94 106 144 166 180 162 163 158 151 161 175 193 206 202 171 114 135 159 134 69 112 133 115 150 138 126 122 130 139 137 132 117 119 122 123 128 130 129 135 140 145 138 131 138 
108 106 105 107 108 110 111 111 112 111 107 99 93 91 90 92 109 124 126 127 131 108 53 72 66 26 4 19 45 69 47 18 93 45 15 73 84 40 31 14 74 141 110 47 56 71 79 77 112 118 124 116 107 106 92 97 88 115 192 201 167 128 86 48 50 55 98 144 175 183 138 83 102 158 107 65 112 149 106 107 139 103 124 134 131 130 122 116 118 123 127 127 128 129 135 139 138 124 126 136 
100 98 93 93 97 100 104 106 108 108 106 101 96 95 92 93 108 119 122 127 131 73 48 36 38 9 7 43 51 78 104 63 96 119 39 76 128 94 29 13 56 134 89 44 67 74 80 72 96 117 115 113 110 103 96 99 104 125 197 202 109 52 45 42 49 44 21 66 132 110 65 42 67 156 93 62 89 158 127 72 129 136 135 137 131 125 117 118 121 127 129 127 125 128 131 131 124 125 127 134 
96 91 87 84 89 96 100 105 110 109 110 107 104 101 96 96 114 124 129 132 105 49 34 18 30 7 22 56 63 71 99 111 72 146 113 68 55 54 53 24 59 87 62 50 70 98 103 110 103 105 110 112 112 108 105 95 94 114 180 128 69 124 115 88 74 71 44 136 179 97 75 80 81 145 86 64 110 154 151 87 112 155 140 130 127 121 121 126 127 128 128 128 127 129 129 120 122 126 137 128 
91 84 79 76 79 88 97 105 108 111 111 109 109 106 100 102 118 133 126 122 84 44 18 12 24 5 32 42 74 94 90 94 96 86 116 153 166 178 135 42 57 82 67 73 107 117 125 127 118 104 99 93 102 109 109 96 91 90 118 64 55 51 85 125 105 64 127 179 106 51 42 68 125 143 91 59 102 151 147 98 79 143 158 132 126 122 122 129 129 127 126 127 128 125 122 127 123 132 134 121 
90 80 75 72 75 84 93 103 105 107 106 107 107 103 101 106 121 134 132 128 71 26 6 9 23 15 41 27 57 72 68 60 80 92 98 118 136 140 107 35 33 47 78 117 109 119 120 115 109 96 99 103 96 103 111 104 94 103 105 51 58 118 138 132 137 169 170 92 70 102 113 115 125 141 131 69 91 157 148 90 53 117 151 150 121 119 125 126 127 126 125 125 124 123 132 132 127 130 124 112 
89 82 76 74 75 80 88 98 102 103 102 101 102 99 98 105 119 130 133 111 47 13 2 28 22 22 41 30 15 70 92 76 82 83 80 115 119 98 80 42 38 71 97 105 115 116 111 117 115 104 103 90 99 97 108 103 98 88 81 42 88 145 183 197 156 118 68 71 113 115 117 120 119 149 153 72 71 152 148 85 45 111 140 156 132 123 125 126 127 128 127 124 123 127 133 133 129 130 124 108 
88 84 77 74 74 76 82 89 95 97 97 95 95 92 94 100 113 122 136 117 46 10 20 54 19 32 49 59 16 69 73 83 93 96 111 117 117 102 71 44 45 84 98 99 109 112 105 101 110 108 102 95 91 97 110 102 101 82 78 43 85 114 138 147 98 62 79 103 102 137 140 144 116 138 155 91 76 162 151 80 38 80 139 155 147 125 126 126 127 127 127 125 127 131 132 131 130 132 125 108 
85 80 79 77 75 77 79 81 87 88 89 86 84 83 87 92 100 120 125 96 39 12 38 61 16 39 69 86 30 38 55 69 85 85 108 109 102 72 64 30 44 83 84 108 115 109 96 95 115 114 107 106 94 92 103 101 100 87 86 54 83 101 115 120 110 89 85 113 127 149 148 123 96 158 172 118 72 164 167 86 50 86 130 154 159 132 122 120 123 121 123 127 127 129 129 129 129 127 125 114 
79 78 77 77 76 75 75 77 80 80 79 76 74 75 78 82 94 117 106 75 33 14 46 63 10 47 72 119 73 25 36 65 76 80 88 100 86 79 53 31 65 56 73 98 100 106 104 109 115 119 118 110 100 92 96 98 101 93 86 67 82 90 102 99 110 121 112 120 109 144 137 78 139 193 188 144 70 164 180 96 58 67 141 160 162 137 116 114 114 115 119 121 123 123 123 123 120 123 121 114 
77 73 70 72 73 70 70 71 74 74 70 67 66 67 70 75 87 114 119 87 27 18 61 53 8 45 80 127 88 13 33 38 51 71 79 89 76 90 36 57 67 54 78 98 113 112 115 109 114 117 115 118 108 96 95 103 105 106 98 88 91 82 99 105 117 121 136 130 135 135 74 97 194 172 180 151 68 172 187 119 65 83 141 168 166 141 114 105 105 111 114 115 115 118 115 113 115 118 115 107 
69 68 66 64 66 67 65 66 66 66 64 63 62 60 65 73 90 124 131 68 27 35 77 32 13 34 72 111 117 24 15 27 47 60 71 70 61 72 40 51 45 58 80 101 123 114 107 104 105 109 119 118 110 100 88 88 100 105 98 93 98 89 103 109 119 129 130 144 112 110 91 179 211 190 200 160 85 174 204 166 77 81 150 169 171 151 117 103 105 105 108 110 110 112 111 106 111 113 110 101 
61 61 60 59 60 64 64 60 58 61 62 62 61 62 63 74 93 125 121 60 28 61 77 33 24 21 44 58 113 58 19 29 41 49 50 55 68 52 43 58 37 58 74 94 102 106 95 95 102 99 110 106 100 102 92 81 93 101 104 99 103 105 105 109 125 125 108 110 119 127 161 202 211 220 211 176 87 166 218 200 101 67 142 171 175 163 115 104 104 101 101 102 103 99 104 108 105 107 103 96 
56 56 55 54 57 62 65 57 56 59 60 60 59 61 68 82 110 130 113 59 72 72 75 34 23 16 11 12 30 81 80 38 28 24 43 55 74 54 49 58 45 73 78 70 85 84 91 88 103 89 90 94 88 94 101 80 80 73 102 97 100 116 123 97 116 120 122 89 102 126 167 212 219 220 207 152 83 184 220 213 125 72 142 178 174 149 126 102 99 94 92 93 89 91 97 102 101 98 94 88 
55 52 52 54 58 61 60 59 57 57 58 56 59 61 69 87 112 138 93 55 86 71 76 42 9 6 22 33 8 43 75 46 18 20 35 66 74 45 54 56 52 91 111 102 91 82 81 92 105 99 96 109 78 75 103 96 78 76 97 109 107 120 134 126 127 108 108 125 75 60 132 218 211 183 168 96 96 202 222 221 160 83 147 182 180 164 115 89 88 89 84 76 77 87 90 90 91 89 82 77 
51 53 52 58 60 57 59 63 63 57 53 54 57 60 66 87 129 137 77 56 54 51 68 42 6 15 56 69 38 24 63 50 25 23 45 70 80 52 34 47 53 109 123 132 140 132 117 120 109 137 166 157 147 84 83 107 88 83 102 116 122 115 127 116 124 121 87 138 123 132 197 184 128 82 81 63 119 208 222 222 166 97 156 181 184 160 119 88 79 79 75 69 77 82 82 82 82 83 70 72 
44 52 58 60 60 59 62 65 71 66 57 55 57 58 63 90 131 121 71 50 20 17 55 41 18 50 73 87 74 63 64 39 26 25 61 64 76 68 32 9 30 57 82 118 131 134 135 140 145 154 166 152 141 136 53 77 103 89 96 119 127 127 116 123 100 114 143 185 215 201 145 79 119 135 60 46 102 198 190 207 171 90 141 194 187 180 137 102 75 66 70 79 76 74 75 75 73 64 74 76 
49 52 58 61 63 63 63 66 67 73 67 57 56 57 59 86 133 110 60 36 17 14 38 31 29 65 75 95 77 70 49 17 23 35 39 55 74 88 35 10 6 9 6 46 112 124 127 100 121 133 112 62 72 94 34 40 100 103 109 115 130 126 122 124 109 118 97 163 139 91 117 183 207 133 67 86 65 102 121 176 155 121 160 186 197 177 148 115 82 63 70 77 76 70 70 67 58 65 73 78 
57 54 52 64 66 65 64 65 66 64 64 58 54 55 56 86 116 101 71 38 26 10 23 32 30 64 71 71 35 48 30 18 18 33 29 58 55 45 34 21 8 4 4 6 60 121 117 62 106 100 18 10 11 25 54 71 112 123 126 119 129 128 113 122 100 151 125 97 119 165 201 208 200 110 172 158 60 58 91 125 97 133 181 197 199 181 142 125 111 77 71 70 71 72 66 57 64 70 74 77 
64 61 58 64 71 70 68 67 66 59 60 60 53 51 54 84 116 98 59 43 23 8 19 35 15 58 73 68 48 41 39 39 21 24 37 60 64 47 64 68 25 12 8 6 16 73 91 108 107 39 12 12 25 36 77 94 135 124 123 131 127 133 113 120 105 131 183 190 208 208 203 185 128 163 208 167 68 82 144 127 78 144 184 196 192 179 137 123 118 101 75 68 67 69 61 61 69 73 73 70 
70 69 67 66 73 78 75 70 65 62 59 57 56 52 52 80 122 87 56 45 43 28 35 48 17 54 65 50 34 51 59 56 26 27 31 59 67 73 99 132 126 60 23 13 13 48 70 110 123 36 62 66 52 85 121 151 148 141 117 131 107 101 99 101 160 90 134 148 211 198 171 124 175 217 221 198 161 169 165 114 106 166 191 196 181 161 139 119 117 115 87 69 65 59 70 73 72 69 67 67 
78 80 80 80 79 85 81 72 67 64 61 58 58 61 56 83 117 77 66 45 29 11 20 66 54 57 75 43 20 37 63 58 22 36 53 66 86 103 129 162 177 168 124 42 24 67 77 94 113 44 80 90 120 156 155 128 119 128 139 136 132 130 110 77 166 143 107 102 191 150 81 158 209 223 227 222 208 201 146 106 160 188 202 189 186 161 142 120 121 117 100 66 57 64 73 77 73 68 66 62 
89 91 91 93 91 86 84 78 72 68 66 63 62 62 68 112 130 118 78 56 30 10 16 33 49 45 62 86 97 86 82 48 45 84 97 130 105 119 157 177 192 182 180 137 52 53 61 73 100 64 113 157 186 193 183 147 112 92 91 94 90 123 130 116 177 190 144 132 170 140 163 206 216 224 227 224 219 192 125 118 181 199 202 183 171 158 137 115 116 114 107 83 65 68 70 72 72 67 58 55 
98 99 99 100 99 94 88 88 80 74 71 70 68 66 81 114 123 127 83 56 28 9 17 35 59 61 81 83 67 38 51 52 71 69 79 109 107 115 126 139 166 164 158 172 157 84 45 52 80 152 191 202 200 207 202 173 155 161 152 145 111 89 88 100 166 197 189 177 195 193 186 179 209 225 224 216 204 158 106 117 176 206 197 195 164 164 139 116 112 116 112 114 81 71 71 67 70 67 55 58 
99 102 102 102 101 100 96 95 92 82 76 72 71 74 89 132 133 127 87 60 27 22 44 48 41 55 58 54 40 25 38 38 30 29 25 49 49 69 66 77 126 144 157 155 184 177 78 106 181 187 183 188 181 180 175 175 158 168 174 171 164 154 137 123 142 175 186 205 197 178 142 144 200 217 219 213 190 147 77 106 178 195 192 181 154 158 142 120 116 114 116 135 103 71 68 69 63 64 68 62 
96 100 103 102 102 102 100 97 95 91 81 75 74 73 92 127 127 105 110 57 38 27 36 36 25 42 43 42 50 36 43 48 48 44 68 68 88 117 129 134 172 170 177 180 184 176 123 158 193 196 201 198 179 139 103 124 106 127 130 136 147 160 169 158 163 192 197 184 169 107 108 178 199 190 175 203 182 115 81 114 181 189 181 173 164 158 146 125 119 117 106 104 122 90 68 62 60 70 74 70 
91 94 96 100 100 100 99 97 94 88 84 79 76 73 84 101 105 95 88 54 31 39 17 15 54 52 38 22 46 54 74 81 41 77 61 119 141 159 154 148 145 154 138 160 185 180 122 156 175 186 182 200 209 202 178 153 104 79 78 72 79 94 100 114 156 191 200 205 194 187 181 185 143 114 126 167 179 154 96 126 196 204 185 165 165 153 146 117 118 118 110 94 112 121 72 59 66 72 74 70 
84 86 90 94 96 97 96 94 91 85 80 78 76 78 82 92 93 89 77 65 41 15 22 49 51 47 42 48 37 80 80 66 65 63 51 83 94 109 103 123 100 150 156 152 159 175 99 138 161 186 196 173 185 192 195 192 181 156 138 129 126 123 110 135 172 198 203 202 190 178 172 133 144 118 110 143 157 166 108 139 191 207 189 176 164 163 135 111 115 116 108 81 105 128 85 66 69 74 72 68 
82 84 85 85 90 92 92 89 88 83 81 77 77 75 93 123 114 104 74 56 25 30 52 45 42 62 61 36 72 69 77 90 49 33 21 21 48 68 115 121 132 140 150 149 139 117 44 86 150 171 186 183 190 140 178 152 189 184 153 145 122 129 143 141 156 192 205 204 180 125 94 107 147 180 195 160 127 145 129 150 196 214 196 182 175 176 137 111 110 119 114 102 117 127 125 77 70 75 71 67 
87 84 82 84 85 88 88 87 88 87 86 84 79 79 82 89 113 97 80 47 42 45 37 54 64 54 27 72 73 80 84 67 56 53 45 62 102 128 135 121 120 134 155 133 87 36 25 28 89 150 181 186 167 190 184 135 130 132 138 138 107 102 140 129 168 202 194 147 117 122 138 149 181 192 191 156 154 128 141 158 197 207 203 187 177 169 139 121 120 123 125 115 121 130 131 104 77 71 68 60 
95 90 86 84 83 83 83 83 88 90 90 88 85 83 86 89 86 87 69 63 61 59 79 64 29 39 64 87 86 51 82 57 81 38 51 50 47 58 100 85 99 131 129 62 33 39 39 29 28 86 161 176 183 173 156 174 178 162 110 107 108 118 122 147 161 190 181 158 91 117 157 178 185 186 186 147 118 133 148 176 195 202 202 195 180 145 123 112 120 121 117 112 120 125 122 116 97 72 59 60 
101 96 91 86 84 81 81 84 89 90 90 88 84 84 81 88 90 80 78 71 65 78 79 52 66 65 108 82 45 79 42 64 35 32 21 15 22 61 57 68 107 96 52 86 101 96 85 84 56 52 93 168 170 148 115 95 131 153 163 155 153 143 122 83 148 181 168 141 148 146 164 185 174 164 160 152 101 105 148 188 202 194 189 192 179 147 113 118 120 107 109 110 117 120 112 112 117 86 65 64 
100 95 92 87 85 80 78 81 87 89 90 87 84 81 81 88 89 78 78 77 83 78 71 73 75 104 95 62 82 58 58 15 39 49 15 47 32 78 42 81 93 85 128 129 125 129 106 116 122 96 79 102 160 147 80 71 64 99 93 77 117 73 93 132 153 163 140 107 130 174 178 193 182 159 138 125 131 125 158 193 213 200 179 183 176 143 120 123 129 124 114 103 115 117 104 99 114 94 78 64 
96 93 87 82 79 76 76 78 81 87 89 87 83 81 81 86 88 82 91 89 68 73 68 91 99 81 74 71 70 73 29 38 29 37 33 45 60 67 63 94 129 137 127 157 137 126 98 103 123 128 128 96 98 147 125 56 59 75 92 70 66 130 110 147 164 130 104 130 148 178 199 195 187 165 152 116 107 140 184 189 208 209 195 177 176 132 118 112 122 124 111 105 103 106 97 105 114 101 108 92 
93 85 80 75 73 73 75 78 80 84 88 87 83 78 77 95 80 91 93 75 73 58 94 101 76 91 60 75 99 61 45 18 37 17 72 26 75 113 113 134 146 160 151 157 147 157 127 128 130 132 179 151 136 107 127 85 83 46 76 108 44 89 147 141 127 115 117 127 165 188 200 206 204 182 171 155 138 141 186 201 198 200 200 181 162 138 124 123 123 128 117 117 112 101 56 84 108 103 106 96 
89 84 78 74 71 71 75 78 81 82 84 84 81 77 76 85 81 104 96 81 54 76 93 81 82 70 88 79 71 57 43 53 31 33 59 45 71 107 133 130 157 150 178 149 155 161 150 149 152 123 172 162 166 167 137 74 54 58 52 94 93 79 85 127 106 85 144 137 160 182 191 196 206 207 195 198 183 170 179 187 194 196 191 180 149 128 121 125 126 126 118 113 100 76 51 89 105 99 110 81 
91 87 82 80 77 73 77 79 79 80 77 77 76 75 76 81 100 104 92 78 90 82 83 78 72 81 88 72 67 61 51 60 52 70 59 72 83 112 140 163 169 168 136 168 151 161 169 148 160 159 164 194 204 195 177 136 71 53 40 68 130 128 96 109 129 118 136 158 168 175 174 190 203 211 207 205 202 203 191 178 167 182 181 162 148 112 107 103 116 116 112 112 101 59 72 99 105 98 98 69 
93 91 87 86 84 80 79 80 80 79 77 76 77 75 74 80 101 92 92 106 82 74 70 75 83 92 76 45 66 53 56 59 53 58 71 62 60 97 127 134 121 163 136 161 152 165 171 158 157 181 164 173 198 190 186 177 122 75 62 97 152 149 145 111 156 166 155 158 177 169 175 163 188 199 208 200 202 197 196 179 166 166 177 165 152 129 128 117 116 115 108 107 76 46 87 104 100 90 92 59 
98 96 92 87 84 84 82 82 81 79 80 80 79 78 78 97 94 91 114 113 88 73 59 79 85 73 58 64 49 48 51 51 48 53 49 43 46 75 109 130 123 164 137 132 171 173 165 164 173 178 158 178 190 184 174 165 128 75 66 108 155 155 172 150 144 151 172 153 161 158 155 165 173 181 192 198 198 188 182 167 169 143 159 156 127 145 127 127 123 113 105 90 60 61 96 100 86 83 83 37 
102 99 95 91 85 84 82 80 80 83 83 84 82 82 85 107 88 99 101 109 108 82 67 79 79 75 47 66 54 52 52 44 45 38 37 34 42 59 98 110 116 153 138 141 160 154 146 161 152 174 170 177 184 184 173 158 111 62 104 112 129 133 151 160 144 136 152 166 149 143 160 159 173 175 183 188 187 183 161 155 156 152 145 137 135 135 139 124 116 109 104 83 50 88 104 94 80 83 68 31 
108 100 95 90 86 83 81 80 84 87 85 86 87 86 97 100 92 80 100 111 111 86 91 65 70 68 66 66 54 55 43 42 41 31 28 31 45 82 79 107 110 148 110 123 166 126 153 133 132 159 128 156 174 156 167 140 119 89 89 106 147 143 141 140 151 160 139 153 152 148 178 172 180 184 185 170 186 170 159 165 156 144 120 125 135 120 141 118 110 107 98 53 60 95 90 80 80 83 55 32 
109 103 94 90 86 83 81 83 86 87 89 90 89 87 99 102 81 85 101 113 100 97 82 72 75 61 78 51 49 44 35 39 44 40 39 43 48 64 88 91 93 113 92 88 142 112 141 97 120 136 99 129 134 143 130 123 138 138 117 98 110 120 151 154 143 166 165 151 158 163 186 193 184 182 169 151 137 164 161 163 164 141 128 115 115 136 124 122 114 108 79 47 74 92 82 83 86 88 50 40 
111 103 95 90 88 83 82 86 90 92 93 94 93 101 106 88 83 89 96 110 109 107 90 90 65 51 66 46 48 47 47 52 54 50 55 52 57 66 64 73 66 75 63 60 95 117 122 79 96 105 89 102 91 138 143 146 144 167 149 144 132 108 118 137 140 155 169 167 160 170 182 186 196 175 153 150 132 137 159 162 160 138 126 129 116 119 137 132 112 101 61 45 89 88 80 88 82 76 36 51 
106 101 92 86 84 84 83 86 93 96 98 95 97 109 92 88 81 92 111 100 117 108 93 89 63 55 72 54 55 54 56 58 59 61 61 60 62 65 72 70 61 63 70 52 73 85 88 73 72 81 88 89 92 118 152 159 150 177 168 160 158 143 135 143 100 117 153 168 177 170 177 168 189 168 134 126 123 132 160 153 143 133 112 129 119 118 136 123 114 96 64 65 89 83 81 89 80 61 22 64 
106 99 93 86 83 81 85 89 90 97 97 94 98 97 89 87 85 91 105 109 112 117 106 108 84 79 72 60 57 56 59 62 58 62 65 63 66 64 84 59 60 59 76 54 69 61 63 66 59 68 88 84 97 117 138 153 155 150 164 170 170 160 155 168 106 105 107 150 171 172 170 146 168 165 112 81 116 129 152 144 137 126 126 117 119 126 118 122 116 82 54 72 89 84 88 94 88 49 28 77 
109 105 98 91 85 85 89 91 93 97 99 96 103 88 86 85 84 105 98 105 116 128 131 132 117 109 78 63 60 60 60 60 60 66 66 64 67 63 74 59 63 63 76 59 57 60 55 68 64 69 91 98 103 115 125 131 149 151 146 161 160 157 138 171 140 106 105 132 155 148 155 144 152 143 110 70 116 124 143 146 150 139 132 120 121 115 111 120 86 66 64 88 84 85 88 97 80 33 55 86 
113 110 103 97 92 92 96 98 100 100 98 97 97 89 91 89 89 104 101 105 120 133 136 151 132 125 84 66 64 60 60 60 66 65 67 63 65 59 67 61 63 65 68 65 55 57 51 69 74 82 99 105 101 107 113 122 127 141 135 132 155 142 125 133 155 123 111 125 158 146 130 125 133 124 102 94 132 128 134 133 128 140 122 120 112 111 105 97 88 64 83 90 87 90 85 95 68 31 72 86 
112 109 106 103 102 103 105 108 109 105 101 99 95 94 95 97 115 106 109 113 121 133 142 152 138 128 93 70 64 62 62 65 65 63 63 63 65 60 61 61 63 63 69 71 54 55 57 70 83 93 106 97 90 100 94 88 106 126 119 94 128 125 116 109 143 129 116 113 127 128 108 121 90 75 105 119 117 135 124 134 133 129 130 122 112 109 97 85 83 76 91 91 87 90 92 88 45 41 85 92 
110 109 105 105 108 109 109 110 113 111 104 100 97 98 102 114 114 111 82 106 122 130 139 144 144 133 104 75 66 61 63 64 64 64 61 65 63 60 60 62 63 62 76 76 60 60 66 79 95 100 100 102 85 72 75 64 59 84 83 70 94 93 116 82 84 121 117 99 117 111 105 83 78 71 118 121 130 132 131 130 139 132 121 126 113 104 91 65 67 97 92 98 88 93 93 80 31 73 89 93 
105 105 103 105 105 108 110 112 113 110 105 100 96 100 108 113 113 111 101 117 121 127 131 134 142 133 108 85 70 62 60 62 64 62 62 66 62 60 62 62 58 65 80 76 68 68 61 53 78 75 69 90 59 38 54 49 48 49 49 55 67 65 70 54 57 79 71 73 93 83 65 63 75 108 123 132 133 123 137 128 131 127 115 108 113 101 78 67 93 108 88 90 94 96 91 56 48 94 96 94 
104 101 100 100 103 105 111 111 110 106 101 97 94 97 110 110 115 118 120 122 121 121 124 126 132 127 115 91 68 57 60 61 57 58 63 63 59 59 63 59 56 62 79 85 72 63 37 37 44 39 38 59 54 45 42 59 58 45 44 65 80 67 50 40 30 40 63 67 82 48 50 90 116 128 128 130 133 128 131 133 116 124 115 105 98 95 78 87 93 107 98 88 91 95 83 36 76 100 95 88 
100 100 100 103 104 106 107 109 107 104 100 98 95 103 104 109 113 115 118 120 118 118 118 118 132 115 111 91 60 57 56 53 52 56 56 59 60 62 61 53 51 62 80 94 53 44 36 70 89 31 32 96 77 51 89 71 83 66 75 80 107 61 40 33 63 71 74 63 46 55 93 123 128 141 129 126 127 131 136 123 114 112 105 90 77 84 97 107 95 94 107 89 91 94 60 53 95 98 93 93 
94 97 100 100 102 104 105 103 105 102 99 98 96 105 103 105 108 114 113 116 117 116 116 110 114 111 104 89 74 59 49 49 54 53 48 59 62 60 54 43 59 65 62 63 50 50 45 85 66 31 100 124 101 89 94 74 86 96 100 88 68 37 57 71 107 85 71 53 55 100 129 128 129 133 134 136 130 119 122 122 120 103 103 81 71 89 95 94 97 100 112 97 92 88 42 70 97 99 98 95 
92 94 98 99 102 102 102 103 102 100 98 97 104 103 102 100 103 108 107 111 112 110 107 104 99 106 97 96 87 60 49 49 45 44 49 60 59 57 52 56 52 31 32 23 45 28 32 42 58 96 141 137 116 119 125 116 120 107 92 66 69 98 104 96 87 80 52 44 101 124 139 128 133 127 135 129 129 128 124 112 105 100 71 90 93 105 101 94 99 92 98 106 94 73 60 90 100 96 98 88 
92 94 97 100 102 100 97 97 97 97 100 100 103 100 97 96 96 101 98 101 100 100 100 101 98 100 89 89 81 59 47 42 45 47 55 60 59 60 54 50 38 21 25 33 50 51 56 103 130 127 145 137 148 131 125 139 135 100 55 95 109 128 122 112 77 55 55 92 130 132 135 133 140 126 134 131 132 129 120 116 97 91 96 96 97 103 104 91 94 94 95 107 90 64 83 100 100 102 95 82 
93 95 95 95 94 94 94 94 94 97 102 104 103 99 93 92 91 95 88 90 92 95 94 94 91 99 85 81 75 54 44 45 48 53 57 53 60 59 53 42 28 32 51 58 90 101 111 137 129 152 157 156 160 141 147 133 90 59 102 134 135 120 106 86 33 48 98 129 131 133 135 133 128 125 120 132 126 121 111 99 96 92 102 104 106 105 99 97 93 99 98 107 94 81 96 98 103 93 93 53 
92 92 89 85 85 91 91 89 88 96 103 104 103 101 92 88 87 88 80 81 86 89 90 87 86 93 86 77 66 53 48 44 48 51 54 58 60 49 39 30 43 62 60 95 133 123 123 130 154 153 148 144 145 143 122 81 98 123 141 138 128 106 53 42 55 95 127 144 125 134 138 130 134 115 128 119 113 111 96 83 96 100 105 109 108 102 98 97 104 96 101 106 99 87 96 99 102 89 66 25 
89 85 81 75 74 82 82 79 78 90 102 103 100 97 87 82 80 81 73 73 76 80 81 81 82 83 81 69 57 46 39 40 44 49 55 53 43 27 25 49 89 94 109 145 138 103 122 148 162 165 149 147 117 63 74 116 147 138 150 120 100 61 41 70 120 135 129 146 140 128 135 130 129 123 120 109 114 92 70 88 100 113 116 107 102 101 98 98 102 100 93 92 101 92 90 100 99 85 39 20 
87 81 75 68 67 74 71 68 66 83 98 101 96 91 83 74 70 75 69 69 72 76 74 75 77 77 77 65 56 44 38 48 50 49 49 42 26 28 58 91 109 121 150 133 101 117 145 160 155 137 130 101 64 94 137 140 123 102 113 68 42 54 103 117 142 144 140 142 152 131 124 126 129 120 115 112 95 83 93 105 111 118 116 111 106 94 101 95 97 97 96 93 88 89 91 90 95 68 17 31 
78 75 71 64 61 65 64 60 58 73 87 93 88 82 76 69 65 69 71 69 67 71 72 70 71 72 70 56 50 44 44 53 53 53 48 38 42 63 84 105 115 98 87 103 129 142 137 144 126 109 88 112 122 127 134 110 102 68 47 45 80 111 153 153 142 145 138 158 149 137 127 130 128 108 113 94 86 94 108 119 118 116 115 108 102 98 100 101 94 99 92 94 86 90 91 92 88 52 21 56 
69 70 69 60 57 57 58 55 53 61 74 83 78 71 69 64 63 67 71 70 70 73 73 69 64 68 63 51 51 43 40 54 60 56 48 49 58 86 111 128 91 100 123 118 107 122 134 137 98 108 136 152 134 106 96 70 49 47 81 103 132 153 151 148 151 151 146 134 149 138 131 112 107 107 90 81 99 106 117 121 121 113 105 99 101 96 95 97 95 96 94 92 93 90 89 93 72 27 31 82 
56 60 61 57 57 58 58 56 59 58 65 66 64 64 67 66 67 67 68 67 69 77 78 70 65 63 57 47 47 36 41 55 61 60 57 63 74 92 108 105 108 111 93 95 143 156 129 92 115 144 147 137 124 92 47 32 75 115 133 150 147 151 152 146 149 156 135 126 132 128 112 110 103 79 85 94 112 113 120 113 113 110 99 98 91 93 88 90 91 87 91 92 93 90 90 92 55 16 37 91 
53 54 57 56 56 58 58 66 67 67 65 63 65 62 61 66 70 66 65 63 68 75 79 75 69 66 55 49 46 36 31 46 61 62 62 73 91 99 107 125 97 74 116 144 133 109 103 129 145 139 125 110 84 46 64 105 137 149 155 160 154 135 143 153 153 150 142 128 122 111 107 98 80 80 105 110 113 108 114 109 99 91 95 93 91 89 87 88 93 87 96 91 100 92 87 86 36 21 57 93 
56 59 58 58 56 57 58 66 69 68 70 69 73 69 66 70 77 71 64 57 61 65 72 74 73 67 53 51 51 36 27 34 52 63 65 85 79 83 101 105 92 138 134 132 114 138 136 131 129 113 86 48 47 84 143 158 157 159 162 155 158 155 138 144 145 149 148 130 117 106 94 78 75 94 112 111 114 105 97 98 91 95 93 95 98 99 96 97 94 93 90 97 99 102 94 67 20 29 82 97 
70 70 64 63 58 54 56 60 65 68 74 77 77 76 74 76 78 75 62 53 52 57 60 71 77 65 52 52 47 30 19 29 51 59 67 79 85 102 101 130 155 149 130 112 143 147 139 133 106 55 52 78 130 144 168 171 169 170 168 158 153 155 150 150 153 150 125 110 102 74 72 82 100 104 114 101 92 90 91 95 90 88 94 98 99 99 97 101 92 99 91 93 100 103 89 56 17 48 91 101 
76 76 72 72 68 58 57 58 59 63 75 86 85 83 82 81 76 71 66 56 53 53 55 68 79 63 51 51 49 35 23 25 41 62 89 88 93 94 89 128 137 152 158 138 143 138 116 82 52 85 128 160 170 151 170 155 155 160 157 144 145 139 132 142 137 131 114 97 77 74 102 110 92 102 103 97 91 85 95 94 89 98 97 99 98 99 92 89 100 95 99 98 100 110 89 40 23 62 102 101 
75 76 80 81 74 64 60 62 59 64 71 86 90 90 85 81 73 71 70 61 59 54 58 65 77 61 55 50 45 34 21 24 44 66 82 79 79 71 115 136 143 151 143 137 132 108 57 72 130 159 171 158 157 140 152 144 154 152 154 142 139 144 138 135 126 119 90 66 83 102 102 107 110 100 95 89 84 87 90 94 88 97 92 95 110 95 95 92 97 93 97 100 105 107 81 31 46 89 101 98 
76 80 90 92 79 71 68 69 67 62 66 79 91 93 92 86 77 74 73 70 65 58 60 65 71 52 53 48 44 36 23 21 34 63 76 74 93 135 162 159 144 141 132 121 81 68 127 163 183 168 159 149 152 153 167 159 173 163 157 155 142 145 141 128 116 79 82 97 93 101 97 97 101 101 92 91 91 92 95 98 92 91 94 98 104 95 91 101 102 93 101 97 109 102 61 23 59 98 105 106 
78 85 95 99 82 76 76 77 76 67 67 75 89 92 93 91 88 79 78 76 69 67 63 64 63 54 58 49 49 44 32 24 35 62 83 97 111 151 141 138 120 114 80 65 87 142 168 170 172 169 176 168 180 171 173 160 163 146 146 143 137 137 132 108 91 82 97 103 110 109 106 94 93 98 91 88 92 98 101 97 93 92 99 106 107 104 103 99 104 105 100 111 110 99 45 36 85 101 105 105 
87 92 96 102 94 81 82 80 77 73 75 78 85 89 92 93 98 95 86 75 72 74 74 75 62 58 54 48 47 45 36 26 31 62 93 110 127 139 141 137 102 67 68 117 153 169 171 175 178 180 177 161 159 161 166 155 145 139 133 126 124 122 116 86 84 104 101 96 93 97 105 98 96 94 89 88 94 96 99 100 96 107 101 103 110 101 100 103 104 105 104 112 112 79 29 59 100 107 98 102 
97 97 96 90 91 84 83 83 77 75 78 81 85 88 88 90 96 98 98 83 75 77 79 89 61 58 53 48 48 47 41 32 49 91 106 107 150 154 122 72 79 128 146 155 169 173 177 167 177 167 145 155 140 154 137 139 132 117 129 119 102 77 85 101 113 99 92 95 105 96 93 102 101 96 96 94 100 105 104 95 106 107 104 100 111 104 90 108 109 103 105 112 102 59 32 93 112 101 99 105 
90 93 88 84 78 86 86 89 84 79 79 83 87 91 88 85 87 95 95 94 88 82 84 92 57 58 59 51 47 50 46 39 58 106 118 141 136 106 71 106 136 150 158 172 182 176 183 182 160 152 145 144 142 137 128 124 127 120 116 79 83 93 110 109 96 101 93 100 97 100 99 94 99 93 98 101 102 105 101 102 99 108 102 103 103 111 106 102 111 107 106 105 82 45 68 112 109 100 105 255 
